<svg xmlns="http://www.w3.org/2000/svg" width="32" height="32" viewBox="0 0 32 32"><path fill="#444" d="M16 5.343c-6.196 0-11.22 5.023-11.22 11.22 0 4.956 3.215 9.16 7.674 10.644.56.103.766-.244.766-.54 0-.267-.01-1.152-.016-2.088-3.12.677-3.78-1.324-3.78-1.324-.51-1.296-1.245-1.64-1.245-1.64-1.02-.697.076-.683.076-.683 1.126.078 1.72 1.156 1.72 1.156 1 1.714 2.627 1.218 3.265.93.103-.723.393-1.22.713-1.498-2.49-.283-5.11-1.246-5.11-5.545 0-1.226.438-2.225 1.154-3.01-.114-.286-.5-1.427.11-2.97 0 0 .942-.302 3.086 1.15.894-.25 1.854-.374 2.807-.378.953.003 1.913.128 2.81.378 2.14-1.453 3.082-1.15 3.082-1.15.613 1.545.227 2.685.112 2.97.72.784 1.153 1.784 1.153 3.01 0 4.31-2.624 5.26-5.123 5.537.404.348.76 1.03.76 2.076 0 1.5-.014 2.71-.014 3.08 0 .3.204.648.772.538 4.455-1.486 7.666-5.69 7.666-10.645 0-6.195-5.023-11.22-11.22-11.22z"/></svg>