<svg xmlns="http://www.w3.org/2000/svg" width="32" height="32" viewBox="0 0 32 32"><path fill="#444" d="M22.21.517c-.03.025-.905.93-1.937 2.02L18.398 4.51l-.75 2.926-2.094.037c-3.894.08-6.194.394-6.62.9-.08.094-.068.125.076.25 1.02.875 9.062 1.13 12.78.412 1.32-.256 1.657-.575.94-.88-.545-.238-2.54-.564-3.432-.564-.244 0-.3-.016-.3-.11 0-.055.137-.63.3-1.27l.294-1.16 1.75-1.85c.963-1.02 1.756-1.9 1.77-1.95.062-.28-.682-.88-.9-.73zM9 9.18c0 .188.756 7.3.794 7.412.012.05.075-.044.137-.225.557-1.556 1.66-2.875 2.6-3.094.457-.106.8.006 1.17.375.406.406.48.844.17 1.012-.157.08-.307-.03-.507-.394-.43-.77-1.23-.363-2.093 1.075-.913 1.515-1.15 3.19-.457 3.19.257 0 .876-.49 1.307-1.024.294-.375.406-.58.57-1.063.105-.324.23-.624.28-.66s.162-.064.262-.05c.16.018.174.043.193.312.012.206-.037.456-.175.844-.18.51-.387 1.17-.775 2.455-.087.294-.2.594-.256.67-.14.193-.33.18-.42-.02-.064-.13-.045-.27.13-.856.112-.388.224-.757.243-.826.02-.08-.125.026-.394.276-.627.58-1.24.824-1.6.63-.108-.056-.12-.044-.12.106 0 .475.45 4.738.505 4.806.188.224 1.52.605 2.87.818 1.03.162 3.968.162 5 0 .886-.144 1.855-.37 2.324-.544.66-.244.58.025.955-3.22.18-1.58.325-2.886.313-2.893-.014-.01-.215.138-.446.332-.5.425-.83.588-1.2.594-.33 0-.5-.08-.575-.29-.09-.22.03-.475.505-1.063.53-.656.62-.78.62-.913 0-.28-.645.012-1.013.463-.12.15-.295.394-.388.544-.212.33-.762 1.588-1.037 2.37-.214.606-.413.887-.62.887-.12 0-.32-.15-.32-.238 0-.164.2-.67.57-1.476.238-.512.43-.944.43-.956s-.118.07-.268.187c-.356.294-.75.48-.994.48-.238 0-.488-.15-.488-.286 0-.114.012-.12-.38.1-.595.324-.932.205-.932-.34v-.25l-.256.27c-.47.48-1.106.65-1.456.375-.224-.175-.22-.588.02-1.3.43-1.275.76-1.775 1.056-1.587.18.112.15.293-.137.886-.495 1.02-.526 1.5-.088 1.375.42-.12.92-.775 1.27-1.65.093-.244.21-.488.268-.55.137-.156.344-.113.413.087.044.13 0 .306-.244.906-.2.488-.307.838-.307 1.025-.006.27 0 .28.175.27.225-.02.587-.258.637-.427.193-.63 1.636-4.155 1.75-4.28.124-.125.174-.144.32-.09.104.04.18.115.192.196.012.075-.106.425-.262.78-.612 1.42-1.41 3.47-1.41 3.626 0 .1.03.175.062.175.15 0 .563-.263 1.012-.645.4-.35.493-.463.58-.744.24-.724.412-.93.67-.793.1.056.12.113.093.28-.02.12-.02.214 0 .214s.162-.113.313-.256c.477-.43.883-.538 1.258-.306.175.105.2.155.2.393 0 .326-.25.77-.775 1.388-.195.224-.35.437-.35.474 0 .03.062.056.143.056.137 0 1.188-.806 1.42-1.088.068-.087.212-1.238.543-4.28.243-2.288.443-4.17.43-4.176-.006-.012-.17.037-.363.106-.488.17-1.544.35-2.813.48-1.375.138-6.03.157-7.394.032-1.27-.12-2.494-.313-3.013-.48L9 9.038v.136zm1.875 15.506c0 .012.2.363.438.775l.445.76.18 2.51.19 2.52.187.16c.47.4 1.594.626 3.344.664 1.986.044 3.535-.206 4.042-.663l.2-.174.144-2.537.144-2.53.407-.715c.225-.387.406-.725.406-.75 0-.02-.188.025-.425.106-.844.288-2.488.545-3.95.626-1.625.088-4.144-.22-5.42-.662-.18-.063-.33-.1-.33-.088z"/></svg>