<svg xmlns="http://www.w3.org/2000/svg" width="32" height="32" viewBox="0 0 32 32"><path fill="#444" d="M22.21.517c-.03.025-.905.93-1.937 2.02L18.398 4.51l-.75 2.926-2.094.037c-3.894.08-6.194.394-6.62.9-.08.094-.068.125.076.25 1.02.875 9.062 1.13 12.78.412 1.32-.256 1.657-.575.94-.88-.545-.238-2.54-.564-3.432-.564-.244 0-.3-.014-.3-.11 0-.053.137-.63.3-1.27l.294-1.16 1.75-1.85c.963-1.02 1.756-1.9 1.77-1.95.062-.28-.682-.88-.9-.73zM9 9.18c0 .188.756 7.3.794 7.412.012.05.075-.044.137-.225.56-1.556 1.66-2.875 2.6-3.094.46-.106.8.006 1.17.375.408.406.48.844.17 1.012-.155.08-.305-.03-.505-.394-.43-.77-1.23-.363-2.093 1.075-.912 1.517-1.15 3.19-.456 3.19.257 0 .876-.49 1.307-1.022.295-.375.407-.58.57-1.063.106-.324.23-.624.28-.66s.163-.064.263-.05c.16.018.174.043.193.312.01.206-.038.456-.176.844-.18.51-.386 1.17-.774 2.456-.087.294-.2.594-.256.67-.14.193-.33.18-.42-.02-.064-.13-.045-.27.13-.856.112-.39.224-.758.243-.827.02-.08-.125.026-.394.276-.628.58-1.24.822-1.6.63-.11-.058-.12-.046-.12.104 0 .475.45 4.738.504 4.806.188.225 1.52.606 2.87.82 1.03.16 3.968.16 5 0 .886-.145 1.855-.37 2.324-.545.66-.244.58.025.956-3.22.18-1.58.325-2.886.313-2.893-.015-.01-.216.138-.447.332-.5.425-.83.588-1.2.594-.33 0-.5-.08-.575-.29-.09-.22.03-.475.505-1.063.53-.656.62-.78.62-.913 0-.28-.645.012-1.013.463-.12.15-.295.394-.388.544-.213.33-.763 1.586-1.038 2.37-.214.604-.413.885-.62.885-.12 0-.32-.15-.32-.238 0-.164.2-.67.57-1.476.238-.51.43-.943.43-.955s-.118.07-.268.187c-.356.294-.75.48-.994.48-.238 0-.488-.15-.488-.286 0-.114.012-.12-.38.1-.595.324-.932.205-.932-.34v-.25l-.256.27c-.47.48-1.106.65-1.456.375-.224-.174-.22-.587.02-1.3.43-1.274.76-1.774 1.056-1.586.18.112.15.293-.137.886-.496 1.02-.527 1.5-.09 1.376.42-.12.92-.775 1.27-1.65.093-.244.21-.488.268-.55.137-.156.344-.113.413.087.045.13 0 .306-.243.906-.2.486-.307.836-.307 1.023-.007.27 0 .28.174.27.225-.02.587-.258.637-.427.195-.63 1.638-4.155 1.75-4.28.126-.125.176-.144.32-.09.106.04.18.115.194.196.012.075-.106.425-.262.78-.61 1.42-1.41 3.47-1.41 3.626 0 .1.03.174.063.174.15 0 .563-.263 1.012-.645.4-.35.493-.464.58-.745.24-.724.412-.93.67-.793.1.055.12.112.093.28-.02.12-.02.213 0 .213s.162-.113.313-.256c.478-.43.884-.538 1.26-.306.174.106.2.156.2.394 0 .326-.25.77-.776 1.388-.195.224-.35.437-.35.474 0 .03.062.055.143.055.137 0 1.188-.805 1.42-1.087.068-.087.212-1.238.543-4.28.243-2.288.443-4.17.43-4.176-.006-.01-.17.038-.363.107-.488.17-1.544.35-2.813.48-1.375.138-6.03.157-7.394.032-1.27-.12-2.494-.314-3.013-.48L9 9.036v.137zm1.875 15.506c0 .012.2.363.438.775l.445.76.18 2.51.19 2.52.187.16c.47.4 1.594.628 3.344.666 1.984.044 3.533-.206 4.04-.663l.2-.174.144-2.538.144-2.53.406-.714c.225-.387.406-.725.406-.75 0-.02-.188.025-.425.106-.844.288-2.488.545-3.95.626-1.625.088-4.144-.22-5.42-.662-.18-.063-.33-.1-.33-.088z"/></svg>