<svg xmlns="http://www.w3.org/2000/svg" width="32" height="32" viewBox="0 0 32 32"><path fill="#444" d="M9.633 7.968h3.75v10.514c0 4.738-2.27 6.392-5.898 6.392-.888 0-2.024-.148-2.764-.395l.42-3.04c.52.174 1.188.297 1.928.297 1.58 0 2.567-.717 2.567-3.283V7.967zm7.008 12.785c.99.518 2.57 1.037 4.174 1.037 1.728 0 2.64-.716 2.64-1.826 0-1.012-.79-1.63-2.788-2.32-2.764-.987-4.59-2.517-4.59-4.96 0-2.84 2.394-4.986 6.293-4.986 1.9 0 3.257.37 4.244.84l-.84 3.01c-.64-.32-1.85-.79-3.454-.79-1.63 0-2.42.765-2.42 1.604 0 1.06.913 1.53 3.085 2.37 2.937 1.085 4.294 2.615 4.294 4.984 0 2.79-2.124 5.158-6.69 5.158-1.9 0-3.776-.518-4.714-1.037l.765-3.085z"/></svg>