<svg xmlns="http://www.w3.org/2000/svg" width="32" height="32" viewBox="0 0 32 32"><path fill="#444" d="M16.232 24.047c-.15-.034-.295-.08-.44-.124-.038-.01-.075-.022-.11-.033-.144-.044-.285-.09-.426-.14l-.058-.02c-.126-.045-.25-.09-.375-.14l-.105-.04c-.136-.054-.27-.11-.405-.168l-.08-.036c-.116-.052-.23-.105-.342-.16l-.096-.046c-.09-.043-.177-.09-.264-.134-.06-.03-.12-.06-.177-.092-.107-.058-.212-.117-.317-.178-.035-.02-.07-.038-.107-.06-.14-.08-.28-.165-.414-.25l-.11-.075c-.1-.06-.198-.125-.294-.192-.032-.02-.063-.045-.094-.066-.094-.065-.187-.13-.278-.2l-.122-.092c-.084-.064-.168-.13-.25-.196l-.112-.09c-.105-.086-.21-.172-.312-.262-.01-.01-.023-.018-.034-.028-.11-.097-.22-.197-.328-.298l-.092-.088c-.08-.076-.158-.153-.235-.23-.03-.032-.062-.062-.092-.093-.098-.1-.194-.202-.29-.305-.004-.005-.01-.01-.013-.015-.1-.11-.197-.22-.293-.334-.027-.03-.05-.06-.078-.09-.07-.087-.143-.174-.21-.262-.028-.03-.054-.064-.08-.096-.082-.107-.163-.214-.242-.323-2.197-2.997-2.986-7.13-1.23-10.524L6.175 10.54c-1.994 2.86-1.747 6.59-.224 9.635l.113.217.07.137.045.076c.026.05.053.095.08.142.046.082.095.165.144.25l.085.134c.055.09.11.176.17.264l.07.11c.08.118.162.236.245.353 0 .003.004.006.006.01.013.017.028.036.04.055.073.1.148.2.224.296l.084.108c.067.085.136.17.206.253.026.03.052.064.08.095.093.11.188.22.286.328l.006.005.01.014c.096.104.194.206.292.307.03.033.062.064.093.095.075.077.153.153.232.228l.095.09c.105.1.21.197.32.292l.004.004.055.045c.095.082.192.164.29.245l.12.098.24.19.13.097c.09.066.18.13.27.194l.1.07c.01.004.018.01.027.02.087.06.176.113.264.17.038.027.075.053.114.078.135.085.272.17.41.252l.115.064c.102.06.205.117.31.174.055.03.113.06.17.088.073.038.147.078.22.115l.052.027c.03.013.06.027.09.043.117.055.234.11.352.163l.072.033c.135.06.27.115.41.17l.1.04c.126.047.255.096.385.14.016.007.032.013.05.018.14.05.285.096.43.14l.103.032c.148.044.294.097.446.125 9.643 1.76 12.444-5.794 12.444-5.794-2.352 3.065-6.528 3.873-10.485 2.974zm-3.474-7.816c.216.31.456.68.742.93.104.114.213.226.324.336.028.03.057.056.085.084.105.104.214.206.33.306l.01.012.004.003c.125.11.255.218.386.32.03.02.06.047.09.07.13.1.265.2.403.295l.012.01.184.12.086.06c.098.062.198.124.3.182.013.01.027.016.04.024.088.05.177.1.266.148.03.018.063.033.094.05l.185.095c.01.004.02.01.03.012.127.063.255.123.386.18l.085.035c.106.043.21.086.317.127l.135.05c.097.036.193.07.29.1.045.015.088.03.132.043.14.044.276.1.42.123 7.445 1.233 9.164-4.5 9.164-4.5-1.55 2.233-4.55 3.297-7.754 2.466-.142-.04-.282-.08-.422-.125l-.127-.04c-.1-.033-.197-.067-.295-.103l-.133-.05c-.108-.04-.214-.084-.318-.128l-.087-.036c-.13-.058-.26-.118-.39-.18l-.194-.1-.113-.058c-.082-.045-.164-.092-.245-.14-.02-.01-.04-.02-.06-.032-.1-.058-.2-.12-.298-.18l-.09-.06c-.065-.043-.13-.086-.193-.13-.136-.094-.27-.193-.4-.293l-.09-.07c-1.403-1.108-2.514-2.62-3.043-4.335-.554-1.778-.434-3.775.525-5.395L12.357 8.12c-1.442 2.075-1.364 4.853-.24 7.048.19.368.402.725.64 1.065zm7.848-2.564c.06.023.123.043.185.064l.085.025c.088.027.175.06.265.076 4.11.796 5.225-2.11 5.522-2.535-.976 1.406-2.617 1.744-4.63 1.255-.16-.04-.335-.097-.49-.15-.196-.07-.39-.15-.578-.24-.358-.174-.7-.38-1.015-.62-1.804-1.368-2.924-3.977-1.748-6.1l-.636.875c-.85 1.25-.933 2.805-.344 4.186.622 1.47 1.897 2.62 3.384 3.165z"/></svg>