<svg xmlns="http://www.w3.org/2000/svg" width="32" height="32" viewBox="0 0 32 32"><path fill="#444" d="M16.232 24.047c-.15-.034-.295-.08-.44-.124-.038-.01-.075-.022-.11-.033-.144-.044-.285-.09-.426-.14l-.058-.02c-.126-.045-.25-.09-.375-.14l-.105-.04c-.136-.054-.27-.11-.405-.168l-.08-.036c-.116-.052-.23-.105-.342-.16l-.098-.046c-.09-.043-.177-.09-.264-.134-.06-.03-.118-.06-.176-.092-.107-.058-.212-.117-.317-.178-.035-.02-.07-.038-.107-.06-.14-.08-.277-.165-.412-.25l-.11-.075c-.1-.062-.198-.127-.294-.194-.032-.02-.063-.045-.094-.066-.093-.066-.186-.132-.277-.2l-.122-.093c-.084-.064-.168-.13-.25-.196l-.112-.09c-.105-.086-.21-.172-.312-.262-.01-.01-.023-.018-.034-.028-.11-.097-.22-.197-.328-.298l-.092-.088c-.08-.076-.158-.153-.235-.23-.03-.032-.062-.062-.092-.093-.098-.1-.194-.202-.29-.305-.004-.005-.01-.01-.013-.015-.1-.11-.197-.22-.293-.334-.026-.03-.05-.06-.077-.09-.07-.087-.142-.174-.21-.262-.027-.03-.053-.064-.078-.096-.083-.108-.164-.215-.243-.324-2.198-2.996-2.987-7.13-1.23-10.523l-1.557 1.975C4.18 13.4 4.427 17.13 5.95 20.175c.036.073.074.145.112.217l.07.137.045.078c.026.05.053.095.08.142.046.083.095.166.144.25l.084.135c.055.09.11.176.17.264l.07.11c.08.118.162.236.245.353 0 .003.004.006.006.01.013.017.028.036.04.055.073.1.148.2.224.296l.084.107c.067.086.136.17.206.254.026.03.052.063.08.094.093.11.188.22.286.328l.006.005.01.014c.096.104.194.206.292.307.03.033.062.064.093.095.076.077.154.153.233.228l.095.09c.105.1.21.197.32.292l.004.004.055.046c.095.082.192.164.29.245l.12.097.24.19.13.097c.09.066.18.13.27.194l.1.07c.01.006.018.013.027.02.086.06.175.115.263.173.038.026.075.052.114.077.135.086.272.17.41.253l.115.064c.102.06.205.117.31.174.055.03.113.06.17.088.073.038.147.078.22.115l.052.026c.03.014.06.028.09.044.117.055.234.11.352.163l.073.033c.135.06.27.116.41.17.032.014.065.026.1.04.126.048.255.097.385.142.016.006.032.012.05.017.14.05.285.096.43.14l.103.032c.148.044.294.097.446.125 9.643 1.76 12.444-5.795 12.444-5.795-2.352 3.065-6.528 3.873-10.485 2.974zm-3.474-7.816c.216.31.456.68.742.928.104.114.213.226.324.336.028.03.057.056.085.084.107.105.216.207.33.307l.013.012.003.003c.125.11.255.216.386.32.03.02.058.045.088.068.132.1.266.2.404.295l.012.01.184.12.088.06c.098.062.198.124.3.182.013.01.027.016.04.024.088.05.177.1.266.147.03.018.063.033.094.05l.185.095c.01.004.02.01.028.012.128.063.256.123.387.18l.085.035c.105.044.21.087.316.128l.135.05c.097.036.193.07.29.1.045.015.088.03.132.043.14.044.276.1.42.123 7.445 1.233 9.164-4.5 9.164-4.5-1.55 2.233-4.55 3.297-7.753 2.466-.142-.04-.282-.08-.422-.123l-.127-.04c-.1-.033-.197-.067-.295-.103l-.133-.05c-.107-.04-.213-.084-.317-.128l-.086-.036c-.13-.057-.26-.117-.39-.18-.065-.032-.13-.066-.194-.1-.037-.018-.075-.037-.112-.057-.082-.045-.164-.092-.245-.14-.02-.01-.04-.02-.06-.032-.1-.058-.2-.12-.298-.18l-.09-.06c-.065-.043-.13-.086-.193-.13-.137-.094-.27-.193-.402-.293l-.09-.07c-1.402-1.108-2.513-2.62-3.042-4.335-.554-1.778-.434-3.775.525-5.395L12.357 8.12c-1.442 2.075-1.364 4.853-.24 7.048.19.368.402.725.64 1.065zm7.848-2.566c.06.023.123.043.185.064l.083.026c.088.027.175.06.265.076 4.11.794 5.226-2.11 5.523-2.537-.976 1.406-2.617 1.744-4.63 1.255-.16-.04-.335-.096-.49-.15-.196-.07-.39-.15-.578-.24-.358-.173-.7-.38-1.015-.62-1.802-1.367-2.922-3.976-1.746-6.1l-.636.876c-.85 1.25-.933 2.805-.344 4.186.622 1.467 1.897 2.617 3.384 3.163z"/></svg>