<svg xmlns="http://www.w3.org/2000/svg" width="32" height="32" viewBox="0 0 32 32"><path fill="#444" d="M16.232 24.047c-.15-.034-.295-.08-.44-.124-.038-.01-.075-.022-.11-.033-.144-.044-.285-.09-.426-.14l-.058-.02c-.126-.045-.25-.09-.375-.14l-.105-.04c-.136-.054-.27-.11-.405-.168l-.08-.036c-.116-.052-.23-.105-.342-.16l-.095-.046c-.09-.043-.177-.09-.264-.134-.06-.03-.12-.06-.176-.092-.107-.058-.212-.117-.317-.178-.035-.02-.07-.038-.107-.06-.14-.08-.28-.165-.414-.25l-.11-.075c-.1-.06-.198-.124-.294-.19-.032-.02-.063-.046-.094-.067-.094-.065-.187-.13-.278-.2l-.122-.092c-.084-.063-.168-.13-.25-.195l-.112-.09c-.105-.086-.21-.172-.312-.262-.01-.01-.023-.018-.034-.028-.11-.097-.22-.197-.328-.298l-.092-.088-.235-.23c-.03-.033-.062-.063-.092-.094-.098-.1-.194-.202-.29-.305l-.013-.014c-.1-.11-.197-.22-.293-.334-.027-.03-.05-.06-.078-.09-.07-.087-.144-.174-.21-.262-.03-.03-.055-.064-.08-.096-.083-.107-.164-.214-.243-.323-2.197-2.996-2.986-7.13-1.23-10.523L6.175 10.54c-1.994 2.86-1.747 6.59-.224 9.635l.114.217.07.137.045.075c.025.05.052.095.08.142.045.082.094.165.143.25l.085.134c.055.09.11.177.17.265l.07.11c.08.118.162.236.245.353 0 .003.004.006.006.01l.04.055c.072.1.147.2.223.296l.084.107c.067.085.136.17.206.253.026.03.052.064.08.095.093.11.188.22.286.328l.005.005.01.014c.096.104.194.206.292.307.03.032.062.063.093.094.075.077.153.153.232.228l.095.09c.105.1.21.197.32.292l.004.004.056.045c.095.082.192.164.29.245l.12.098.24.19.13.097c.09.066.18.13.27.194l.1.07c.01.004.018.01.027.02.087.06.176.113.264.17.038.027.075.053.114.078.136.085.273.17.41.252l.116.064c.102.06.205.118.31.175.055.03.113.06.17.088.073.038.147.078.22.115l.052.027c.03.013.06.027.09.043.117.055.234.11.352.163l.072.034c.135.06.27.115.41.17l.1.04c.126.047.255.096.385.14.016.007.032.013.05.018.14.05.285.096.43.14l.103.032c.148.044.294.097.446.125 9.643 1.76 12.444-5.795 12.444-5.795-2.352 3.065-6.528 3.873-10.485 2.974zm-3.474-7.816c.216.31.456.68.742.93.104.115.213.227.324.337.028.03.057.056.085.084.104.105.213.207.33.307l.01.012.003.002c.125.11.255.218.386.32.03.02.06.047.09.07.13.1.264.2.402.295l.012.01.184.12.086.06c.098.062.198.124.3.182.013.01.027.015.04.023.088.05.177.1.266.148.03.02.063.034.094.05l.185.096c.01.004.02.01.03.012.126.063.254.123.385.18l.085.035c.106.043.21.086.317.127l.135.05c.097.036.193.07.29.1.045.015.088.03.132.043.14.044.276.1.42.123 7.445 1.233 9.164-4.5 9.164-4.5-1.55 2.233-4.55 3.297-7.754 2.466-.142-.04-.282-.08-.422-.125l-.127-.04c-.1-.033-.197-.067-.295-.103l-.133-.05c-.108-.04-.214-.084-.318-.128l-.088-.036c-.13-.058-.26-.118-.39-.18l-.194-.1-.113-.058c-.082-.045-.164-.092-.245-.14-.02-.01-.04-.02-.06-.032-.1-.058-.2-.12-.298-.18l-.09-.06c-.065-.043-.13-.086-.193-.13-.137-.094-.27-.193-.4-.293l-.09-.07c-1.404-1.108-2.515-2.62-3.044-4.335-.554-1.778-.434-3.775.525-5.395L12.358 8.12c-1.442 2.075-1.364 4.853-.24 7.048.19.368.402.725.64 1.065zm7.848-2.563c.06.023.123.043.185.064l.086.026c.088.027.175.06.265.076 4.11.796 5.226-2.11 5.523-2.535-.976 1.406-2.617 1.744-4.63 1.255-.16-.04-.335-.097-.49-.15-.196-.07-.39-.15-.578-.24-.358-.174-.7-.38-1.015-.62-1.804-1.368-2.924-3.977-1.748-6.1l-.636.875c-.85 1.25-.933 2.805-.344 4.186.622 1.47 1.897 2.62 3.384 3.165z"/></svg>