<svg xmlns="http://www.w3.org/2000/svg" width="32" height="32" viewBox="0 0 32 32"><path fill="#444" d="M16.232 24.047c-.15-.034-.295-.08-.44-.124-.038-.01-.075-.022-.11-.033-.144-.044-.285-.09-.426-.14l-.058-.02c-.126-.045-.25-.09-.375-.14l-.105-.04c-.136-.054-.27-.11-.405-.168l-.08-.036c-.116-.052-.23-.105-.342-.16l-.094-.046c-.09-.043-.177-.09-.264-.134-.06-.03-.12-.06-.176-.092-.107-.058-.212-.117-.317-.178l-.108-.06c-.14-.08-.28-.165-.414-.25l-.11-.075c-.1-.06-.198-.123-.294-.19-.032-.02-.063-.045-.094-.066-.094-.065-.187-.13-.278-.2l-.122-.092c-.084-.063-.168-.13-.25-.195l-.112-.09c-.105-.086-.21-.172-.312-.262-.01-.01-.023-.018-.034-.028-.11-.097-.22-.197-.328-.298l-.092-.09-.235-.23c-.03-.032-.062-.062-.092-.093-.098-.1-.194-.202-.29-.305l-.013-.014c-.1-.11-.197-.22-.293-.334-.028-.03-.05-.06-.08-.09-.07-.087-.143-.174-.21-.262-.03-.03-.054-.064-.08-.096-.082-.107-.163-.214-.242-.323-2.197-2.996-2.986-7.13-1.23-10.523l-1.553 1.97c-1.994 2.86-1.747 6.59-.224 9.635l.115.217.07.137.045.074c.025.05.052.095.08.142.045.082.094.165.143.25l.085.134c.055.09.11.177.17.265l.07.11c.08.118.162.236.245.353 0 .003.004.006.006.01l.04.055c.07.1.146.2.222.296l.084.106c.067.085.136.17.206.253.026.03.052.063.08.094.093.11.188.22.286.328l.005.005.01.014c.096.105.194.207.292.308.03.032.062.063.093.094.075.077.153.153.232.228l.095.09c.105.1.21.197.32.292l.004.004.055.045c.095.083.192.165.29.246l.12.098.24.19.13.097c.09.067.18.13.27.195l.1.07c.01.004.018.01.027.02.087.06.176.113.264.17.038.027.075.053.114.078.136.085.273.17.41.252l.116.064c.102.06.205.117.31.174.055.03.113.06.17.088.073.038.147.078.22.115l.052.027c.03.013.06.027.09.043.117.055.234.11.352.163l.072.034c.135.06.27.115.41.17l.1.04c.126.047.255.096.385.14.016.007.032.013.05.018.14.05.285.096.43.14l.103.032c.148.044.294.097.446.125 9.643 1.76 12.444-5.796 12.444-5.796-2.352 3.065-6.528 3.873-10.485 2.974zm-3.474-7.816c.216.31.456.68.742.93.104.116.213.228.324.338.028.03.057.056.085.084.103.105.212.207.33.307l.01.01.002.003c.125.11.255.218.386.32.03.02.06.047.09.07.13.1.264.2.402.295l.012.01.184.12.086.06c.098.062.198.124.3.182.013.01.027.015.04.023.088.05.177.1.266.148.03.02.063.035.094.05l.185.097c.01.004.02.01.03.012.126.062.254.122.385.18l.085.034c.106.043.21.086.317.127l.135.05c.096.037.192.07.29.1.044.016.087.03.13.044.14.044.277.1.42.123 7.446 1.233 9.165-4.5 9.165-4.5-1.55 2.233-4.55 3.297-7.754 2.466-.14-.04-.28-.08-.42-.125l-.128-.04c-.1-.033-.197-.067-.295-.103l-.133-.05c-.108-.04-.214-.084-.318-.128l-.088-.036c-.13-.057-.26-.117-.39-.18l-.194-.1-.113-.057c-.08-.045-.163-.092-.244-.14-.02-.01-.04-.02-.06-.032-.1-.057-.2-.12-.298-.18l-.09-.06c-.065-.042-.13-.085-.193-.13-.137-.093-.27-.192-.4-.292l-.09-.07C14.64 15.08 13.53 13.568 13 11.853c-.553-1.778-.433-3.775.526-5.395L12.358 8.12c-1.442 2.075-1.364 4.853-.24 7.048.19.368.402.725.64 1.065zm7.848-2.562c.06.023.123.043.185.064l.087.026c.088.027.175.06.265.076 4.11.796 5.226-2.11 5.523-2.535-.976 1.405-2.617 1.743-4.63 1.254-.16-.04-.335-.097-.49-.15-.196-.07-.39-.15-.578-.24-.358-.174-.7-.38-1.015-.62-1.804-1.368-2.924-3.977-1.748-6.1l-.636.875c-.85 1.25-.933 2.804-.344 4.185.622 1.47 1.897 2.62 3.384 3.165z"/></svg>