<svg xmlns="http://www.w3.org/2000/svg" width="32" height="32" viewBox="0 0 32 32"><path fill="#444" d="M31.64 21.16c-.108-.91-.577-1.617-1.285-2.17-.82-.642-1.78-.906-2.803-.948-.834-.034-1.65.09-2.437.376-.224.08-.444.177-.67.268-.03-.055-.062-.107-.088-.162-.232-.474-.512-.927-.573-1.47-.044-.386-.098-.772-.006-1.153.088-.363.204-.724.312-1.09.056-.184.017-.29-.16-.372-.063-.03-.13-.055-.198-.065-.438-.062-.87-.026-1.293.097-.15.043-.26.127-.296.293-.02.096-.058.187-.084.28-.11.39-.19.79-.367 1.16-.45.936-.96 1.834-1.485 2.726l-.19.306c-.183-.385-.38-.73-.44-1.136-.066-.457-.12-.914-.005-1.37.085-.34.196-.67.298-1.005.05-.158.028-.24-.116-.325-.073-.042-.155-.08-.237-.092-.455-.067-.902-.032-1.34.11-.135.044-.206.132-.248.272-.123.413-.227.836-.398 1.23-.693 1.59-1.406 3.17-2.12 4.752-.15.33-.322.65-.49.97-.043.08-.104.152-.157.23-.043-.05-.06-.086-.06-.12.002-.203-.022-.413.017-.61.117-.594.252-1.186.395-1.775.116-.486.253-.968.384-1.452.045-.162.046-.313-.07-.45-.196-.227-.604-.277-.846-.1-.026.018-.057.03-.107.06.01-.077.014-.125.02-.173.052-.37.062-.74-.04-1.104-.126-.454-.45-.715-.92-.7-.22.006-.45.043-.653.123-.855.335-1.512.928-2.07 1.64-.052.067-.12.126-.19.165-.723.4-1.45.797-2.174 1.195l-.808.44c-.216-.207-.413-.42-.637-.603-.683-.556-1.376-1.098-2.062-1.648-.608-.49-1.198-.997-1.65-1.64-.335-.48-.55-1.007-.57-1.6-.027-.757.187-1.448.572-2.09.493-.825 1.164-1.485 1.903-2.084.78-.633 1.625-1.17 2.5-1.66C8.928 8 10.188 7.392 11.54 6.99c1.386-.41 2.79-.645 4.24-.48.57.063 1.124.194 1.633.473.39.213.71.492.858.93.148.43.144.864.04 1.3-.204.883-.69 1.612-1.3 2.263-.995 1.066-2.213 1.792-3.585 2.272-.79.275-1.604.45-2.44.52-.682.056-1.35-.004-1.996-.24-.43-.16-.8-.4-1.1-.75-.055-.062-.123-.13-.223-.07-.098.056-.115.15-.082.244.055.157.105.32.19.46.215.35.528.605.872.824.66.42 1.4.56 2.165.593 1.164.05 2.298-.123 3.415-.435 1.597-.444 2.984-1.23 4.097-2.47.927-1.032 1.588-2.198 1.73-3.605.07-.686-.004-1.36-.326-1.985-.35-.68-.902-1.148-1.565-1.495-.963-.506-2.005-.705-3.08-.763H14c-1.303.062-2.562.336-3.786.78-.926.338-1.835.718-2.717 1.158-1.92.96-3.71 2.11-5.18 3.7-.73.793-1.35 1.663-1.707 2.693-.104.303-.168.623-.243.935-.006.026.023.05-.04.077v.44c.063.113.07.225.1.338.188.733.577 1.363 1.06 1.937.686.817 1.517 1.475 2.38 2.095.746.537 1.504 1.062 2.254 1.595.13.09.25.197.39.31-.12.064-.22.12-.323.174-.99.5-1.942 1.064-2.82 1.746-.53.412-1.04.85-1.402 1.42-.58.917-.787 1.895-.354 2.94.127.304.32.568.59.762.09.062.19.125.29.15.266.06.536.102.804.15h.758c.84-.074 1.604-.36 2.29-.837 1.08-.743 1.807-1.74 2.12-3.02.227-.93.236-1.86-.03-2.788-.026-.086-.057-.17-.09-.253s-.07-.164-.116-.268l1.72-.99.025.023c-.03.102-.064.204-.093.308-.204.746-.34 1.505-.29 2.28.05.824.28 1.596.764 2.286.39.557 1.32.577 1.736.02.147-.2.29-.408.397-.63.28-.58.54-1.168.808-1.753l.048-.107c-.02.28-.042.52-.052.766-.016.38.006.758.136 1.12.11.31.3.54.656.58.242.03.436-.082.614-.223.28-.22.504-.49.672-.8.476-.873.964-1.74 1.395-2.635.465-.97.872-1.965 1.305-2.95.025-.053.046-.108.073-.174.102.402.174.795.305 1.168.154.433.34.855.55 1.265.096.194.085.32-.05.482-.564.68-1.118 1.366-1.673 2.054-.123.152-.245.306-.347.472-.063.1-.104.223-.12.34-.034.226.104.442.345.494.22.047.453.065.677.048.773-.057 1.476-.33 2.098-.79.805-.596 1.064-1.41.87-2.374-.054-.262-.147-.517-.238-.77-.04-.113-.043-.193.03-.3.645-.918 1.195-1.894 1.706-2.89.02-.04.04-.08.077-.122.166.864.415 1.695.862 2.45-.23.22-.455.42-.66.64-.45.48-.84 1.007-1.042 1.647-.087.274-.155.554-.116.85.06.457.434.754.884.65.963-.223 1.795-.677 2.403-1.48.41-.54.445-1.146.274-1.78-.046-.17-.102-.34-.162-.54.24-.07.47-.16.71-.215 1.245-.284 2.476-.234 3.675.215.7.263 1.266.703 1.6 1.394.41.845.184 1.646-.612 2.18-.074.05-.16.09-.22.15-.04.04-.06.116-.052.168.007.03.09.07.135.07.263-.002.475-.14.68-.28.51-.353.847-.83.927-1.454.003-.02-.023-.036.04-.053v-.416c-.063-.018-.036-.035-.04-.05zM7.287 22.85c-.083 1.116-.588 2.02-1.414 2.75-.465.413-.997.706-1.618.81-.225.036-.455.045-.674-.048-.31-.133-.38-.41-.384-.704-.01-.47.155-.893.38-1.296.294-.526.725-.927 1.185-1.3.725-.59 1.51-1.09 2.317-1.562.013-.008.03-.012.06-.025.125.46.185.914.15 1.377zm6.29-4.844c-.06.356-.132.712-.236 1.057-.36 1.194-.82 2.352-1.32 3.493-.09.21-.223.404-.34.604-.02.03-.045.058-.07.084-.145.143-.283.135-.356-.052-.084-.217-.136-.45-.18-.68-.03-.153-.024-.315-.033-.473.01-1.127.35-2.15.934-3.1.24-.39.502-.764.9-1.013.123-.077.26-.138.4-.178.21-.06.342.04.307.25zm4.29 5.467l1.543-1.8c.063.668-1.073 2.003-1.543 1.8zm4.927-1.21c-.11.06-.228.107-.34.164-.102.053-.136 0-.14-.088 0-.06.008-.126.024-.18.208-.74.59-1.365 1.162-1.875.007-.008.02-.01.04-.02.27.757-.043 1.59-.748 1.994z"/></svg>