<svg xmlns="http://www.w3.org/2000/svg" width="32" height="32" viewBox="0 0 32 32"><path fill="#444" d="M31.64 21.16c-.108-.91-.577-1.617-1.285-2.17-.82-.642-1.78-.906-2.803-.948-.834-.034-1.65.09-2.437.376-.224.08-.444.177-.67.268-.03-.055-.062-.107-.088-.162-.232-.474-.512-.927-.573-1.47-.044-.386-.098-.772-.006-1.153.088-.366.204-.727.312-1.09.056-.187.017-.29-.16-.375-.063-.03-.13-.055-.198-.065-.438-.063-.87-.027-1.293.096-.15.044-.26.128-.293.294-.02.095-.058.186-.084.28-.11.39-.19.79-.368 1.16-.45.935-.96 1.833-1.485 2.725-.057.096-.116.19-.188.308-.184-.385-.38-.73-.44-1.136-.067-.458-.12-.915-.006-1.37.085-.34.196-.672.298-1.006.05-.158.026-.24-.118-.325-.073-.042-.155-.08-.237-.092-.455-.067-.902-.032-1.34.11-.135.044-.206.132-.248.272-.122.413-.226.836-.397 1.23-.694 1.59-1.407 3.17-2.12 4.752-.15.33-.323.65-.49.97-.044.082-.105.153-.158.23-.043-.05-.06-.085-.06-.12.002-.202-.022-.412.017-.608.117-.595.252-1.187.395-1.776.116-.486.253-.968.384-1.452.044-.162.045-.313-.072-.45-.195-.227-.603-.277-.845-.1-.026.018-.057.03-.107.06.01-.077.014-.125.02-.173.052-.37.062-.74-.04-1.104-.126-.454-.45-.715-.92-.7-.22.006-.45.043-.653.123-.855.334-1.512.927-2.07 1.64-.052.066-.12.125-.19.164-.723.4-1.45.797-2.174 1.195l-.807.44c-.216-.206-.413-.42-.637-.602-.683-.556-1.376-1.098-2.062-1.648-.608-.487-1.198-.995-1.65-1.64-.335-.48-.55-1.005-.57-1.6-.027-.755.187-1.446.572-2.09.493-.823 1.164-1.483 1.903-2.082.78-.633 1.626-1.17 2.502-1.66 1.225-.686 2.486-1.293 3.837-1.694 1.386-.41 2.79-.646 4.24-.482.57.064 1.124.195 1.633.474.39.213.708.492.857.93.146.43.142.864.04 1.3-.206.883-.69 1.612-1.3 2.263-.997 1.066-2.215 1.792-3.587 2.272-.79.277-1.605.45-2.44.52-.683.058-1.35-.002-1.997-.24-.428-.157-.8-.398-1.1-.747-.054-.063-.122-.13-.222-.072-.098.057-.115.15-.082.245.055.157.105.32.19.46.215.35.528.605.872.824.66.42 1.4.56 2.165.594 1.163.05 2.297-.123 3.414-.435 1.596-.444 2.983-1.23 4.096-2.47.927-1.032 1.588-2.198 1.73-3.605.07-.687-.004-1.36-.326-1.986-.35-.68-.903-1.148-1.566-1.495-.964-.506-2.006-.705-3.08-.763H14c-1.303.063-2.562.337-3.786.782-.926.337-1.835.717-2.717 1.157-1.92.96-3.71 2.11-5.18 3.7-.73.793-1.35 1.663-1.707 2.693-.104.302-.168.622-.243.934-.006.026.023.05-.04.077v.44c.063.113.07.225.1.338.188.733.577 1.363 1.06 1.937.686.817 1.517 1.475 2.38 2.095.746.537 1.504 1.062 2.254 1.595.13.09.25.197.39.31-.12.064-.222.12-.326.174-.99.502-1.942 1.065-2.82 1.747-.53.412-1.04.85-1.402 1.42-.58.917-.787 1.895-.354 2.94.127.304.32.568.592.762.088.063.187.126.29.15.264.062.534.103.802.152h.758c.84-.075 1.602-.362 2.29-.838 1.08-.744 1.805-1.74 2.118-3.022.227-.93.236-1.862-.03-2.788-.026-.086-.057-.17-.09-.253s-.07-.164-.116-.268l1.72-.99.025.023c-.03.102-.064.204-.093.308-.204.746-.34 1.505-.29 2.28.05.824.28 1.596.764 2.286.39.558 1.32.578 1.736.02.147-.2.29-.407.397-.63.28-.578.54-1.167.808-1.752l.047-.107c-.02.277-.042.52-.052.764-.016.38.006.758.136 1.12.11.31.3.54.654.58.242.03.436-.082.614-.223.28-.22.505-.49.673-.8.476-.873.964-1.74 1.395-2.635.466-.97.873-1.965 1.306-2.95.025-.053.046-.108.073-.174.102.402.174.795.305 1.168.152.432.34.854.547 1.264.097.194.086.32-.05.482-.563.68-1.117 1.368-1.672 2.056-.123.152-.245.306-.347.472-.062.1-.103.223-.12.34-.033.226.105.442.346.494.22.047.453.065.677.048.773-.057 1.476-.33 2.098-.79.805-.596 1.064-1.41.87-2.374-.054-.262-.147-.517-.238-.77-.04-.113-.043-.193.03-.3.645-.918 1.195-1.894 1.706-2.89.02-.04.04-.08.076-.122.166.863.415 1.694.862 2.448-.228.22-.454.42-.658.64-.45.482-.84 1.008-1.043 1.648-.087.276-.155.556-.116.852.06.458.436.755.886.65.963-.222 1.795-.676 2.403-1.48.41-.54.446-1.145.275-1.778-.046-.172-.102-.34-.162-.54.238-.073.47-.16.71-.216 1.244-.284 2.475-.234 3.674.215.7.262 1.266.702 1.6 1.393.41.845.184 1.646-.612 2.18-.074.05-.16.09-.22.15-.04.04-.06.116-.052.168.005.03.087.07.133.07.263-.003.475-.14.68-.28.51-.354.847-.83.927-1.455.002-.02-.024-.036.04-.053v-.416c-.064-.016-.037-.033-.04-.05zM7.287 22.85c-.083 1.116-.588 2.02-1.414 2.75-.465.413-.997.706-1.618.81-.225.036-.455.045-.674-.048-.31-.133-.38-.41-.387-.704-.01-.47.155-.893.38-1.296.294-.526.725-.927 1.185-1.3.725-.59 1.512-1.09 2.317-1.562.013-.008.03-.012.06-.025.125.46.185.914.15 1.377zm6.29-4.844c-.06.356-.132.712-.236 1.057-.36 1.194-.82 2.352-1.32 3.493-.092.21-.226.404-.343.604-.018.03-.045.058-.07.084-.145.143-.283.135-.356-.052-.084-.217-.136-.45-.18-.68-.03-.153-.024-.315-.033-.473.01-1.124.352-2.146.934-3.096.24-.392.502-.765.9-1.014.123-.076.26-.137.4-.177.21-.06.342.04.307.252zm4.29 5.467l1.543-1.8c.063.668-1.073 2.003-1.543 1.8zm4.927-1.21c-.11.06-.228.107-.34.164-.102.053-.136 0-.14-.088 0-.06.008-.123.024-.18.208-.736.59-1.362 1.162-1.872.007-.008.02-.01.04-.02.27.757-.043 1.59-.748 1.994z"/></svg>