<svg xmlns="http://www.w3.org/2000/svg" width="32" height="32" viewBox="0 0 32 32"><path fill="#444" d="M4.68 16.27c0 4.473 2.6 8.342 6.372 10.17l-5.39-14.77c-.63 1.407-.98 2.962-.98 4.602zm18.936-.57c0-1.398-.503-2.366-.932-3.12-.573-.93-1.11-1.718-1.11-2.65 0-1.04.786-2.007 1.9-2.007.047 0 .096.007.144.01-2.01-1.842-4.69-2.968-7.632-2.968-3.95 0-7.424 2.027-9.444 5.096.266.01.515.017.727.017 1.18 0 3.01-.145 3.01-.145.61-.033.68.86.07.933 0 0-.61.07-1.29.108l4.115 12.244L15.65 15.8l-1.76-4.826c-.61-.036-1.187-.107-1.187-.107-.61-.037-.537-.966.073-.932 0 0 1.865.146 2.976.146 1.182 0 3.014-.144 3.014-.144.607-.033.68.86.07.933 0 0-.61.07-1.292.107l4.085 12.15 1.127-3.765c.573-1.47.86-2.686.86-3.655zm-7.432 1.56l-3.393 9.855c1.015.297 2.085.46 3.197.46 1.315 0 2.58-.23 3.754-.643-.03-.048-.06-.1-.08-.154l-3.475-9.52zm9.72-6.414c.05.36.078.747.078 1.164 0 1.146-.215 2.435-.86 4.05l-3.454 9.98c3.36-1.958 5.62-5.598 5.62-9.77 0-1.966-.503-3.813-1.385-5.424z"/></svg>