<svg xmlns="http://www.w3.org/2000/svg" width="32" height="32" viewBox="0 0 32 32"><path fill="#444" d="M4.68 16.27c0 4.473 2.6 8.342 6.372 10.17L5.662 11.67c-.63 1.407-.98 2.962-.98 4.602zm18.936-.57c0-1.398-.503-2.366-.932-3.12-.573-.93-1.11-1.718-1.11-2.65 0-1.04.786-2.007 1.9-2.007.047 0 .096.007.144.01-2.01-1.842-4.69-2.968-7.632-2.968-3.95 0-7.424 2.027-9.444 5.096.266.01.515.015.727.015 1.182 0 3.012-.145 3.012-.145.608-.034.68.86.07.932 0 0-.61.07-1.292.108l4.117 12.243 2.474-7.418-1.76-4.825c-.61-.037-1.186-.108-1.186-.108-.61-.037-.537-.966.073-.932 0 0 1.865.145 2.976.145 1.182 0 3.014-.145 3.014-.145.607-.034.68.86.07.932 0 0-.61.07-1.292.108l4.085 12.15 1.128-3.766c.573-1.47.86-2.686.86-3.655zm-7.432 1.56l-3.393 9.855c1.013.297 2.083.46 3.195.46 1.315 0 2.58-.23 3.754-.643-.03-.048-.06-.1-.082-.154l-3.474-9.52zm9.72-6.414c.05.36.078.747.078 1.164 0 1.146-.215 2.435-.86 4.05l-3.454 9.98c3.36-1.958 5.62-5.598 5.62-9.77 0-1.966-.503-3.813-1.385-5.424z"/></svg>